<svg width="557" height="547" viewBox="0 0 557 547" fill="none" xmlns="http://www.w3.org/2000/svg">
<path d="M43 52C43 52 47.4299 38 56.631 38C65.8322 38 70.5333 52 79.7345 52C88.9356 52 93.6368 38 102.838 38C112.039 38 116.74 52 125.941 52C135.143 52 133.797 38 149.045 38C164.293 38 177 46.8421 177 46.8421" stroke="#F89D24" stroke-opacity="0.6" stroke-width="4" stroke-linecap="round"/>
<path d="M5.80674 140.851C5.80674 140.851 21.9569 155.075 45.0788 153.247C68.2006 151.418 54.4698 180.622 66.8272 187.198C79.1846 193.774 91.2522 186.322 103.61 192.898C115.967 199.475 116.527 213.647 128.885 220.223C141.242 226.799 148.715 208.398 169.194 219.297C189.672 230.195 177.646 239.833 193.261 252.907" stroke="#F89D24" stroke-opacity="0.6" stroke-width="2" stroke-linecap="round" stroke-dasharray="2 10"/>
<path d="M446.577 36.3917C465.027 37.5865 446.887 69.2862 455.887 75.884C464.886 82.4818 479.233 67.7531 488.232 74.3509C497.232 80.9487 496.057 92.1936 505.056 98.7914C514.056 105.389 520.45 92.0171 536.964 102.658" stroke="#F89D24" stroke-opacity="0.6" stroke-width="4" stroke-linecap="round" stroke-dasharray="8 8"/>
<path fill-rule="evenodd" clip-rule="evenodd" d="M330.146 195.258L330.597 196.408L331.677 197.006L365.479 215.749C366.672 216.41 367.859 216.062 368.131 214.971C368.402 213.88 367.656 212.459 366.463 211.798L333.74 193.655L320.071 158.825L319.62 157.676L318.54 157.077L285.817 138.934L272.147 104.104C271.649 102.835 270.34 101.907 269.222 102.033C268.105 102.158 267.603 103.289 268.102 104.558L282.222 140.537L282.674 141.687L283.753 142.285L316.476 160.429L330.146 195.258Z" fill="#F89D24" fill-opacity="0.6"/>
<path d="M45.9337 458.331L45.9338 458.332C46.213 459.194 45.518 460.315 44.3807 460.836C43.2427 461.357 42.0928 461.081 41.8122 460.219L43.8728 459.274C41.8122 460.219 41.8118 460.217 41.8118 460.217L41.8113 460.216L41.8101 460.212L41.8068 460.202L41.7972 460.171C41.7895 460.146 41.7793 460.111 41.767 460.068C41.7425 459.982 41.7097 459.861 41.6727 459.708C41.5989 459.402 41.5077 458.967 41.432 458.429C41.2814 457.359 41.187 455.847 41.4309 454.112C41.9189 450.638 43.8283 446.001 49.6225 442.449C55.152 439.059 60.7211 438.866 65.4532 438.703L65.7234 438.693C70.7925 438.517 74.975 438.307 79.0277 435.823C83.0804 433.338 85.1646 429.706 87.6217 425.269L87.7527 425.032C90.0455 420.889 92.7438 416.014 98.2733 412.624C103.803 409.234 109.372 409.041 114.104 408.877L114.374 408.868C119.443 408.691 123.626 408.482 127.678 405.997C131.731 403.513 133.815 399.881 136.273 395.443L136.403 395.207C138.696 391.064 141.395 386.189 146.924 382.799C152.688 379.265 157.843 379.537 161.32 380.541C163.065 381.045 164.461 381.748 165.417 382.32C165.897 382.607 166.273 382.866 166.533 383.055C166.663 383.15 166.765 383.228 166.836 383.285C166.872 383.313 166.9 383.336 166.921 383.353L166.946 383.374L166.954 383.381L166.958 383.383L166.959 383.384C166.959 383.384 166.96 383.385 165.256 384.86L166.96 383.385C167.659 383.979 167.463 385.12 166.522 385.935C165.583 386.749 164.255 386.929 163.555 386.338L163.555 386.337L163.554 386.337L163.553 386.336L163.547 386.33C163.542 386.327 163.536 386.322 163.529 386.316C163.521 386.309 163.51 386.3 163.497 386.29C163.449 386.253 163.374 386.194 163.272 386.12C163.068 385.971 162.759 385.758 162.357 385.518C161.548 385.034 160.389 384.454 158.973 384.045C156.129 383.224 152.541 383.155 148.617 385.561C144.565 388.045 142.48 391.678 140.023 396.115L139.892 396.351C138.587 398.71 137.15 401.307 135.133 403.731C133.609 405.565 131.753 407.3 129.372 408.759C126.98 410.226 124.581 411.094 122.246 411.62C119.181 412.311 116.226 412.413 113.541 412.506L113.271 412.515C108.202 412.692 104.019 412.901 99.9666 415.386C95.9139 417.87 93.8297 421.503 91.3725 425.94L91.2416 426.177C89.9526 428.505 88.5355 431.066 86.5594 433.464C85.0202 435.332 83.142 437.101 80.721 438.585C78.2893 440.075 75.8499 440.948 73.4774 441.471C70.4551 442.138 67.5414 442.239 64.8904 442.331L64.6201 442.34C59.551 442.517 55.3685 442.727 51.3158 445.211C47.4223 447.598 46.0334 450.684 45.6452 453.447C45.451 454.83 45.524 456.066 45.6503 456.964C45.713 457.409 45.7876 457.763 45.845 458.001C45.8736 458.119 45.8978 458.208 45.9138 458.264C45.9218 458.292 45.9278 458.312 45.9312 458.323L45.9337 458.331Z" fill="#F89D24" fill-opacity="0.6"/>
<path d="M304.473 446.011L304.616 446.494L304.627 446.488L304.664 446.468C304.697 446.45 304.747 446.423 304.812 446.388C304.943 446.318 305.136 446.215 305.385 446.085C305.883 445.825 306.604 445.457 307.496 445.024C309.281 444.158 311.744 443.036 314.462 442.009C317.181 440.981 320.145 440.052 322.932 439.569C325.726 439.084 328.302 439.054 330.272 439.782C334.195 441.233 335.918 445.762 337.714 450.556L337.75 450.65C339.5 455.323 341.34 460.233 345.62 461.815C349.899 463.398 354.491 460.866 358.86 458.457L358.948 458.409C363.432 455.937 367.686 453.619 371.61 455.07C375.533 456.521 377.256 461.049 379.052 465.843L379.087 465.938C380.838 470.61 382.678 475.52 386.957 477.102C391.237 478.685 395.829 476.153 400.198 473.744L400.286 473.696C404.77 471.224 409.024 468.906 412.948 470.357C414.918 471.085 416.854 472.784 418.661 474.97C420.462 477.151 422.109 479.784 423.505 482.334C424.9 484.882 426.041 487.337 426.833 489.156C427.229 490.065 427.537 490.814 427.746 491.335C427.851 491.596 427.93 491.8 427.984 491.938C428.011 492.007 428.031 492.059 428.044 492.094L428.059 492.134L428.063 492.144L428.064 492.146L428.487 491.872C428.909 491.597 428.909 491.597 428.909 491.597L428.908 491.593L428.904 491.582L428.888 491.54C428.874 491.503 428.853 491.449 428.825 491.378C428.771 491.237 428.689 491.029 428.583 490.765C428.371 490.236 428.059 489.478 427.659 488.559C426.86 486.722 425.707 484.24 424.294 481.661C422.882 479.083 421.206 476.398 419.358 474.162C417.516 471.932 415.476 470.115 413.33 469.322C409.051 467.739 404.459 470.271 400.09 472.68L400.001 472.728C395.518 475.2 391.264 477.518 387.34 476.067C383.417 474.617 381.694 470.088 379.898 465.294L379.862 465.2C378.112 460.527 376.272 455.617 371.992 454.035C367.713 452.452 363.121 454.984 358.752 457.393L358.664 457.441C354.18 459.913 349.926 462.231 346.002 460.78C342.079 459.329 340.356 454.801 338.56 450.007L338.524 449.912C336.774 445.24 334.934 440.33 330.655 438.748C328.509 437.954 325.778 438.006 322.928 438.501C320.07 438.997 317.05 439.945 314.301 440.984C311.55 442.024 309.059 443.159 307.257 444.033C306.355 444.471 305.625 444.843 305.12 445.107C304.867 445.239 304.671 445.343 304.537 445.415C304.47 445.451 304.419 445.479 304.384 445.498L304.345 445.519L304.335 445.525L304.332 445.526C304.332 445.526 304.331 445.527 304.473 446.011Z" fill="#F89D24" fill-opacity="0.6"/>
<path fill-rule="evenodd" clip-rule="evenodd" d="M549.636 541.545L549 538L548.364 541.545L546 542.5L548.364 543.455L549 547L549.636 543.455L552 542.5L549.636 541.545Z" fill="#F89D24" fill-opacity="0.6"/>
<path d="M376.797 290.104C398.741 282.593 393.015 328.05 406.618 331.353C420.221 334.655 429.736 310.681 443.339 313.984C456.942 317.286 461.003 330.876 474.606 334.178C488.209 337.481 489.168 318.912 513.423 323.274" stroke="#F89D24" stroke-opacity="0.6" stroke-width="4" stroke-linecap="round" stroke-dasharray="8 8"/>
</svg>
